<?xml version="1.0" standalone="no"?>
<svg xmlns="http://www.w3.org/2000/svg" width="320" height="320"
  xmlns:xlink="http://www.w3.org/1999/xlink" viewBox="0 0 320 320">
  <defs>
    <clipPath id="heart">
      <path transform="scale(0.4166666666666667)" d="M12 4.248c-3.148-5.402-12-3.825-12 2.944 0 4.661 5.571 9.427 12 15.808 6.43-6.381 12-11.147 12-15.808 0-6.792-8.875-8.306-12-2.944z" />
    </clipPath>
  </defs>
  <rect x="0" y="0" height="320" width="320" clip-path="url('#clip-path-background-color-35')" rx="10" ry="10" fill="pink" />
  <g transform="translate(10,10)">
    <circle cx="40" cy="40" r="35" fill="#880808" />
    <circle cx="40" cy="40" r="25" fill="pink" />
    <circle cx="40" cy="40" r="15" fill="#880808" />
    <circle cx="260" cy="40" r="35" fill="#880808" />
    <circle cx="260" cy="40" r="25" fill="pink" />
    <circle cx="260" cy="40" r="15" fill="#880808" />
    <circle cx="40" cy="260" r="35" fill="#880808" />
    <circle cx="40" cy="260" r="25" fill="pink" />
    <circle cx="40" cy="260" r="15" fill="#880808" />
  </g>
  <g transform="translate(10,10)" fill="#880808">
    <rect clip-path="url(#heart)" height="10" width="10" transform="translate(85, 5)" />
    <rect clip-path="url(#heart)" height="10" width="10" transform="translate(105, 5)" />
    <rect clip-path="url(#heart)" height="10" width="10" transform="translate(115, 5)" />
    <rect clip-path="url(#heart)" height="10" width="10" transform="translate(135, 5)" />
    <rect clip-path="url(#heart)" height="10" width="10" transform="translate(145,5)" />
    <rect clip-path="url(#heart)" height="10" width="10" transform="translate(145,5)" />
    <rect clip-path="url(#heart)" height="10" width="10" transform="translate(145,5)" />
    <rect clip-path="url(#heart)" height="10" width="10" transform="translate(175,5)" />
    <rect clip-path="url(#heart)" height="10" width="10" transform="translate(185,5)" />
    <rect clip-path="url(#heart)" height="10" width="10" transform="translate(85,15)" />
    <rect clip-path="url(#heart)" height="10" width="10" transform="translate(95,15)" />
    <rect clip-path="url(#heart)" height="10" width="10" transform="translate(135,15)" />
    <rect clip-path="url(#heart)" height="10" width="10" transform="translate(175,15)" />
    <rect clip-path="url(#heart)" height="10" width="10" transform="translate(185,15)" />
    <rect clip-path="url(#heart)" height="10" width="10" transform="translate(195,15)" />
    <rect clip-path="url(#heart)" height="10" width="10" transform="translate(85,25)" />
    <rect clip-path="url(#heart)" height="10" width="10" transform="translate(135,25)" />
    <rect clip-path="url(#heart)" height="10" width="10" transform="translate(145,25)" />
    <rect clip-path="url(#heart)" height="10" width="10" transform="translate(185,25)" />
    <rect clip-path="url(#heart)" height="10" width="10" transform="translate(195,25)" />
    <rect clip-path="url(#heart)" height="10" width="10" transform="translate(205,25)" />
    <rect clip-path="url(#heart)" height="10" width="10" transform="translate(95,35)" />
    <rect clip-path="url(#heart)" height="10" width="10" transform="translate(105,35)" />
    <rect clip-path="url(#heart)" height="10" width="10" transform="translate(115,35)" />
    <rect clip-path="url(#heart)" height="10" width="10" transform="translate(135,35)" />
    <rect clip-path="url(#heart)" height="10" width="10" transform="translate(145,35)" />
    <rect clip-path="url(#heart)" height="10" width="10" transform="translate(155,35)" />
    <rect clip-path="url(#heart)" height="10" width="10" transform="translate(165,35)" />
    <rect clip-path="url(#heart)" height="10" width="10" transform="translate(175,35)" />
    <rect clip-path="url(#heart)" height="10" width="10" transform="translate(185,35)" />
    <rect clip-path="url(#heart)" height="10" width="10" transform="translate(85,45)" />
    <rect clip-path="url(#heart)" height="10" width="10" transform="translate(95,45)" />
    <rect clip-path="url(#heart)" height="10" width="10" transform="translate(105,45)" />
    <rect clip-path="url(#heart)" height="10" width="10" transform="translate(135,45)" />
    <rect clip-path="url(#heart)" height="10" width="10" transform="translate(145,45)" />
    <rect clip-path="url(#heart)" height="10" width="10" transform="translate(165,45)" />
    <rect clip-path="url(#heart)" height="10" width="10" transform="translate(185,45)" />
    <rect clip-path="url(#heart)" height="10" width="10" transform="translate(195,45)" />
    <rect clip-path="url(#heart)" height="10" width="10" transform="translate(105,55)" />
    <rect clip-path="url(#heart)" height="10" width="10" transform="translate(115,55)" />
    <rect clip-path="url(#heart)" height="10" width="10" transform="translate(135,55)" />
    <rect clip-path="url(#heart)" height="10" width="10" transform="translate(145,55)" />
    <rect clip-path="url(#heart)" height="10" width="10" transform="translate(85,65)" />
    <rect clip-path="url(#heart)" height="10" width="10" transform="translate(105,65)" />
    <rect clip-path="url(#heart)" height="10" width="10" transform="translate(125,65)" />
    <rect clip-path="url(#heart)" height="10" width="10" transform="translate(145,65)" />
    <rect clip-path="url(#heart)" height="10" width="10" transform="translate(165,65)" />
    <rect clip-path="url(#heart)" height="10" width="10" transform="translate(185,65)" />
    <rect clip-path="url(#heart)" height="10" width="10" transform="translate(205,65)" />
    <rect clip-path="url(#heart)" height="10" width="10" transform="translate(95,75)" />
    <rect clip-path="url(#heart)" height="10" width="10" transform="translate(115,75)" />
    <rect clip-path="url(#heart)" height="10" width="10" transform="translate(125,75)" />
    <rect clip-path="url(#heart)" height="10" width="10" transform="translate(135,75)" />
    <rect clip-path="url(#heart)" height="10" width="10" transform="translate(185,75)" />
    <rect clip-path="url(#heart)" height="10" width="10" transform="translate(195,75)" />
    <rect clip-path="url(#heart)" height="10" width="10" transform="translate(205,75)" />
    <rect clip-path="url(#heart)" height="10" width="10" transform="translate(5,85)" />
    <rect clip-path="url(#heart)" height="10" width="10" transform="translate(35,85)" />
    <rect clip-path="url(#heart)" height="10" width="10" transform="translate(45,85)" />
    <rect clip-path="url(#heart)" height="10" width="10" transform="translate(55,85)" />
    <rect clip-path="url(#heart)" height="10" width="10" transform="translate(65,85)" />
    <rect clip-path="url(#heart)" height="10" width="10" transform="translate(75,85)" />
    <rect clip-path="url(#heart)" height="10" width="10" transform="translate(85,85)" />
    <rect clip-path="url(#heart)" height="10" width="10" transform="translate(135,85)" />
    <rect clip-path="url(#heart)" height="10" width="10" transform="translate(155,85)" />
    <rect clip-path="url(#heart)" height="10" width="10" transform="translate(165,85)" />
    <rect clip-path="url(#heart)" height="10" width="10" transform="translate(175,85)" />
    <rect clip-path="url(#heart)" height="10" width="10" transform="translate(215,85)" />
    <rect clip-path="url(#heart)" height="10" width="10" transform="translate(245,85)" />
    <rect clip-path="url(#heart)" height="10" width="10" transform="translate(265,85)" />
    <rect clip-path="url(#heart)" height="10" width="10" transform="translate(275,85)" />
    <rect clip-path="url(#heart)" height="10" width="10" transform="translate(285,85)" />
    <rect clip-path="url(#heart)" height="10" width="10" transform="translate(5,95)" />
    <rect clip-path="url(#heart)" height="10" width="10" transform="translate(55,95)" />
    <rect clip-path="url(#heart)" height="10" width="10" transform="translate(75,95)" />
    <rect clip-path="url(#heart)" height="10" width="10" transform="translate(105,95)" />
    <rect clip-path="url(#heart)" height="10" width="10" transform="translate(115,95)" />
    <rect clip-path="url(#heart)" height="10" width="10" transform="translate(125,95)" />
    <rect clip-path="url(#heart)" height="10" width="10" transform="translate(135,95)" />
    <rect clip-path="url(#heart)" height="10" width="10" transform="translate(145,95)" />
    <rect clip-path="url(#heart)" height="10" width="10" transform="translate(155,95)" />
    <rect clip-path="url(#heart)" height="10" width="10" transform="translate(175,95)" />
    <rect clip-path="url(#heart)" height="10" width="10" transform="translate(185,95)" />
    <rect clip-path="url(#heart)" height="10" width="10" transform="translate(195,95)" />
    <rect clip-path="url(#heart)" height="10" width="10" transform="translate(235,95)" />
    <rect clip-path="url(#heart)" height="10" width="10" transform="translate(245,95)" />
    <rect clip-path="url(#heart)" height="10" width="10" transform="translate(265,95)" />
    <rect clip-path="url(#heart)" height="10" width="10" transform="translate(275,95)" />
    <rect clip-path="url(#heart)" height="10" width="10" transform="translate(5,105)" />
    <rect clip-path="url(#heart)" height="10" width="10" transform="translate(25,105)" />
    <rect clip-path="url(#heart)" height="10" width="10" transform="translate(35,105)" />
    <rect clip-path="url(#heart)" height="10" width="10" transform="translate(45,105)" />
    <rect clip-path="url(#heart)" height="10" width="10" transform="translate(65,105)" />
    <rect clip-path="url(#heart)" height="10" width="10" transform="translate(75,105)" />
    <rect clip-path="url(#heart)" height="10" width="10" transform="translate(95,105)" />
    <rect clip-path="url(#heart)" height="10" width="10" transform="translate(105,105)" />
    <rect clip-path="url(#heart)" height="10" width="10" transform="translate(125,105)" />
    <rect clip-path="url(#heart)" height="10" width="10" transform="translate(135,105)" />
    <rect clip-path="url(#heart)" height="10" width="10" transform="translate(155,105)" />
    <rect clip-path="url(#heart)" height="10" width="10" transform="translate(165,105)" />
    <rect clip-path="url(#heart)" height="10" width="10" transform="translate(175,105)" />
    <rect clip-path="url(#heart)" height="10" width="10" transform="translate(185,105)" />
    <rect clip-path="url(#heart)" height="10" width="10" transform="translate(205,105)" />
    <rect clip-path="url(#heart)" height="10" width="10" transform="translate(265,105)" />
    <rect clip-path="url(#heart)" height="10" width="10" transform="translate(5,115)" />
    <rect clip-path="url(#heart)" height="10" width="10" transform="translate(45,115)" />
    <rect clip-path="url(#heart)" height="10" width="10" transform="translate(75,115)" />
    <rect clip-path="url(#heart)" height="10" width="10" transform="translate(85,115)" />
    <rect clip-path="url(#heart)" height="10" width="10" transform="translate(135,115)" />
    <rect clip-path="url(#heart)" height="10" width="10" transform="translate(175,115)" />
    <rect clip-path="url(#heart)" height="10" width="10" transform="translate(205,115)" />
    <rect clip-path="url(#heart)" height="10" width="10" transform="translate(215,115)" />
    <rect clip-path="url(#heart)" height="10" width="10" transform="translate(225,115)" />
    <rect clip-path="url(#heart)" height="10" width="10" transform="translate(235,115)" />
    <rect clip-path="url(#heart)" height="10" width="10" transform="translate(255,115)" />
    <rect clip-path="url(#heart)" height="10" width="10" transform="translate(285,115)" />
    <rect clip-path="url(#heart)" height="10" width="10" transform="translate(15,125)" />
    <rect clip-path="url(#heart)" height="10" width="10" transform="translate(25,125)" />
    <rect clip-path="url(#heart)" height="10" width="10" transform="translate(45,125)" />
    <rect clip-path="url(#heart)" height="10" width="10" transform="translate(55,125)" />
    <rect clip-path="url(#heart)" height="10" width="10" transform="translate(65,125)" />
    <rect clip-path="url(#heart)" height="10" width="10" transform="translate(85,125)" />
    <rect clip-path="url(#heart)" height="10" width="10" transform="translate(95,125)" />
    <rect clip-path="url(#heart)" height="10" width="10" transform="translate(105,125)" />
    <rect clip-path="url(#heart)" height="10" width="10" transform="translate(115,125)" />
    <rect clip-path="url(#heart)" height="10" width="10" transform="translate(135,125)" />
    <rect clip-path="url(#heart)" height="10" width="10" transform="translate(155,125)" />
    <rect clip-path="url(#heart)" height="10" width="10" transform="translate(165,125)" />
    <rect clip-path="url(#heart)" height="10" width="10" transform="translate(195,125)" />
    <rect clip-path="url(#heart)" height="10" width="10" transform="translate(225,125)" />
    <rect clip-path="url(#heart)" height="10" width="10" transform="translate(235,125)" />
    <rect clip-path="url(#heart)" height="10" width="10" transform="translate(285,125)" />
    <rect clip-path="url(#heart)" height="10" width="10" transform="translate(15,135)" />
    <rect clip-path="url(#heart)" height="10" width="10" transform="translate(25,135)" />
    <rect clip-path="url(#heart)" height="10" width="10" transform="translate(75,135)" />
    <rect clip-path="url(#heart)" height="10" width="10" transform="translate(85,135)" />
    <rect clip-path="url(#heart)" height="10" width="10" transform="translate(105,135)" />
    <rect clip-path="url(#heart)" height="10" width="10" transform="translate(115,135)" />
    <rect clip-path="url(#heart)" height="10" width="10" transform="translate(125,135)" />
    <rect clip-path="url(#heart)" height="10" width="10" transform="translate(135,135)" />
    <rect clip-path="url(#heart)" height="10" width="10" transform="translate(145,135)" />
    <rect clip-path="url(#heart)" height="10" width="10" transform="translate(155,135)" />
    <rect clip-path="url(#heart)" height="10" width="10" transform="translate(165,135)" />
    <rect clip-path="url(#heart)" height="10" width="10" transform="translate(175,135)" />
    <rect clip-path="url(#heart)" height="10" width="10" transform="translate(185,135)" />
    <rect clip-path="url(#heart)" height="10" width="10" transform="translate(225,135)" />
    <rect clip-path="url(#heart)" height="10" width="10" transform="translate(235,135)" />
    <rect clip-path="url(#heart)" height="10" width="10" transform="translate(245,135)" />
    <rect clip-path="url(#heart)" height="10" width="10" transform="translate(255,135)" />
    <rect clip-path="url(#heart)" height="10" width="10" transform="translate(265,135)" />
    <rect clip-path="url(#heart)" height="10" width="10" transform="translate(275,135)" />
    <rect clip-path="url(#heart)" height="10" width="10" transform="translate(285,135)" />
    <rect clip-path="url(#heart)" height="10" width="10" transform="translate(15,145)" />
    <rect clip-path="url(#heart)" height="10" width="10" transform="translate(25,145)" />
    <rect clip-path="url(#heart)" height="10" width="10" transform="translate(55,145)" />
    <rect clip-path="url(#heart)" height="10" width="10" transform="translate(65,145)" />
    <rect clip-path="url(#heart)" height="10" width="10" transform="translate(85,145)" />
    <rect clip-path="url(#heart)" height="10" width="10" transform="translate(105,145)" />
    <rect clip-path="url(#heart)" height="10" width="10" transform="translate(125,145)" />
    <rect clip-path="url(#heart)" height="10" width="10" transform="translate(135,145)" />
    <rect clip-path="url(#heart)" height="10" width="10" transform="translate(155,145)" />
    <rect clip-path="url(#heart)" height="10" width="10" transform="translate(175,145)" />
    <rect clip-path="url(#heart)" height="10" width="10" transform="translate(195,145)" />
    <rect clip-path="url(#heart)" height="10" width="10" transform="translate(205,145)" />
    <rect clip-path="url(#heart)" height="10" width="10" transform="translate(215,145)" />
    <rect clip-path="url(#heart)" height="10" width="10" transform="translate(225,145)" />
    <rect clip-path="url(#heart)" height="10" width="10" transform="translate(235,145)" />
    <rect clip-path="url(#heart)" height="10" width="10" transform="translate(245,145)" />
    <rect clip-path="url(#heart)" height="10" width="10" transform="translate(265,145)" />
    <rect clip-path="url(#heart)" height="10" width="10" transform="translate(285,145)" />
    <rect clip-path="url(#heart)" height="10" width="10" transform="translate(15,155)" />
    <rect clip-path="url(#heart)" height="10" width="10" transform="translate(25,155)" />
    <rect clip-path="url(#heart)" height="10" width="10" transform="translate(55,155)" />
    <rect clip-path="url(#heart)" height="10" width="10" transform="translate(75,155)" />
    <rect clip-path="url(#heart)" height="10" width="10" transform="translate(105,155)" />
    <rect clip-path="url(#heart)" height="10" width="10" transform="translate(155,155)" />
    <rect clip-path="url(#heart)" height="10" width="10" transform="translate(165,155)" />
    <rect clip-path="url(#heart)" height="10" width="10" transform="translate(205,155)" />
    <rect clip-path="url(#heart)" height="10" width="10" transform="translate(215,155)" />
    <rect clip-path="url(#heart)" height="10" width="10" transform="translate(225,155)" />
    <rect clip-path="url(#heart)" height="10" width="10" transform="translate(235,155)" />
    <rect clip-path="url(#heart)" height="10" width="10" transform="translate(265,155)" />
    <rect clip-path="url(#heart)" height="10" width="10" transform="translate(285,155)" />
    <rect clip-path="url(#heart)" height="10" width="10" transform="translate(5,165)" />
    <rect clip-path="url(#heart)" height="10" width="10" transform="translate(45,165)" />
    <rect clip-path="url(#heart)" height="10" width="10" transform="translate(65,165)" />
    <rect clip-path="url(#heart)" height="10" width="10" transform="translate(105,165)" />
    <rect clip-path="url(#heart)" height="10" width="10" transform="translate(115,165)" />
    <rect clip-path="url(#heart)" height="10" width="10" transform="translate(125,165)" />
    <rect clip-path="url(#heart)" height="10" width="10" transform="translate(145,165)" />
    <rect clip-path="url(#heart)" height="10" width="10" transform="translate(185,165)" />
    <rect clip-path="url(#heart)" height="10" width="10" transform="translate(195,165)" />
    <rect clip-path="url(#heart)" height="10" width="10" transform="translate(205,165)" />
    <rect clip-path="url(#heart)" height="10" width="10" transform="translate(235,165)" />
    <rect clip-path="url(#heart)" height="10" width="10" transform="translate(255,165)" />
    <rect clip-path="url(#heart)" height="10" width="10" transform="translate(5,175)" />
    <rect clip-path="url(#heart)" height="10" width="10" transform="translate(35,175)" />
    <rect clip-path="url(#heart)" height="10" width="10" transform="translate(85,175)" />
    <rect clip-path="url(#heart)" height="10" width="10" transform="translate(95,175)" />
    <rect clip-path="url(#heart)" height="10" width="10" transform="translate(105,175)" />
    <rect clip-path="url(#heart)" height="10" width="10" transform="translate(115,175)" />
    <rect clip-path="url(#heart)" height="10" width="10" transform="translate(135,175)" />
    <rect clip-path="url(#heart)" height="10" width="10" transform="translate(145,175)" />
    <rect clip-path="url(#heart)" height="10" width="10" transform="translate(155,175)" />
    <rect clip-path="url(#heart)" height="10" width="10" transform="translate(185,175)" />
    <rect clip-path="url(#heart)" height="10" width="10" transform="translate(195,175)" />
    <rect clip-path="url(#heart)" height="10" width="10" transform="translate(205,175)" />
    <rect clip-path="url(#heart)" height="10" width="10" transform="translate(245,175)" />
    <rect clip-path="url(#heart)" height="10" width="10" transform="translate(265,175)" />
    <rect clip-path="url(#heart)" height="10" width="10" transform="translate(275,175)" />
    <rect clip-path="url(#heart)" height="10" width="10" transform="translate(5,185)" />
    <rect clip-path="url(#heart)" height="10" width="10" transform="translate(15,185)" />
    <rect clip-path="url(#heart)" height="10" width="10" transform="translate(35,185)" />
    <rect clip-path="url(#heart)" height="10" width="10" transform="translate(45,185)" />
    <rect clip-path="url(#heart)" height="10" width="10" transform="translate(55,185)" />
    <rect clip-path="url(#heart)" height="10" width="10" transform="translate(65,185)" />
    <rect clip-path="url(#heart)" height="10" width="10" transform="translate(75,185)" />
    <rect clip-path="url(#heart)" height="10" width="10" transform="translate(85,185)" />
    <rect clip-path="url(#heart)" height="10" width="10" transform="translate(95,185)" />
    <rect clip-path="url(#heart)" height="10" width="10" transform="translate(125,185)" />
    <rect clip-path="url(#heart)" height="10" width="10" transform="translate(155,185)" />
    <rect clip-path="url(#heart)" height="10" width="10" transform="translate(195,185)" />
    <rect clip-path="url(#heart)" height="10" width="10" transform="translate(245,185)" />
    <rect clip-path="url(#heart)" height="10" width="10" transform="translate(255,185)" />
    <rect clip-path="url(#heart)" height="10" width="10" transform="translate(285,185)" />
    <rect clip-path="url(#heart)" height="10" width="10" transform="translate(5,195)" />
    <rect clip-path="url(#heart)" height="10" width="10" transform="translate(15,195)" />
    <rect clip-path="url(#heart)" height="10" width="10" transform="translate(25,195)" />
    <rect clip-path="url(#heart)" height="10" width="10" transform="translate(35,195)" />
    <rect clip-path="url(#heart)" height="10" width="10" transform="translate(55,195)" />
    <rect clip-path="url(#heart)" height="10" width="10" transform="translate(95,195)" />
    <rect clip-path="url(#heart)" height="10" width="10" transform="translate(125,195)" />
    <rect clip-path="url(#heart)" height="10" width="10" transform="translate(145,195)" />
    <rect clip-path="url(#heart)" height="10" width="10" transform="translate(165,195)" />
    <rect clip-path="url(#heart)" height="10" width="10" transform="translate(225,195)" />
    <rect clip-path="url(#heart)" height="10" width="10" transform="translate(255,195)" />
    <rect clip-path="url(#heart)" height="10" width="10" transform="translate(265,195)" />
    <rect clip-path="url(#heart)" height="10" width="10" transform="translate(5,205)" />
    <rect clip-path="url(#heart)" height="10" width="10" transform="translate(15,205)" />
    <rect clip-path="url(#heart)" height="10" width="10" transform="translate(45,205)" />
    <rect clip-path="url(#heart)" height="10" width="10" transform="translate(55,205)" />
    <rect clip-path="url(#heart)" height="10" width="10" transform="translate(65,205)" />
    <rect clip-path="url(#heart)" height="10" width="10" transform="translate(75,205)" />
    <rect clip-path="url(#heart)" height="10" width="10" transform="translate(105,205)" />
    <rect clip-path="url(#heart)" height="10" width="10" transform="translate(115,205)" />
    <rect clip-path="url(#heart)" height="10" width="10" transform="translate(125,205)" />
    <rect clip-path="url(#heart)" height="10" width="10" transform="translate(135,205)" />
    <rect clip-path="url(#heart)" height="10" width="10" transform="translate(145,205)" />
    <rect clip-path="url(#heart)" height="10" width="10" transform="translate(165,205)" />
    <rect clip-path="url(#heart)" height="10" width="10" transform="translate(175,205)" />
    <rect clip-path="url(#heart)" height="10" width="10" transform="translate(195,205)" />
    <rect clip-path="url(#heart)" height="10" width="10" transform="translate(205,205)" />
    <rect clip-path="url(#heart)" height="10" width="10" transform="translate(215,205)" />
    <rect clip-path="url(#heart)" height="10" width="10" transform="translate(225,205)" />
    <rect clip-path="url(#heart)" height="10" width="10" transform="translate(235,205)" />
    <rect clip-path="url(#heart)" height="10" width="10" transform="translate(245,205)" />
    <rect clip-path="url(#heart)" height="10" width="10" transform="translate(255,205)" />
    <rect clip-path="url(#heart)" height="10" width="10" transform="translate(265,205)" />
    <rect clip-path="url(#heart)" height="10" width="10" transform="translate(275,205)" />
    <rect clip-path="url(#heart)" height="10" width="10" transform="translate(85,215)" />
    <rect clip-path="url(#heart)" height="10" width="10" transform="translate(115,215)" />
    <rect clip-path="url(#heart)" height="10" width="10" transform="translate(145,215)" />
    <rect clip-path="url(#heart)" height="10" width="10" transform="translate(155,215)" />
    <rect clip-path="url(#heart)" height="10" width="10" transform="translate(165,215)" />
    <rect clip-path="url(#heart)" height="10" width="10" transform="translate(205,215)" />
    <rect clip-path="url(#heart)" height="10" width="10" transform="translate(245,215)" />
    <rect clip-path="url(#heart)" height="10" width="10" transform="translate(255,215)" />
    <rect clip-path="url(#heart)" height="10" width="10" transform="translate(85,225)" />
    <rect clip-path="url(#heart)" height="10" width="10" transform="translate(105,225)" />
    <rect clip-path="url(#heart)" height="10" width="10" transform="translate(125,225)" />
    <rect clip-path="url(#heart)" height="10" width="10" transform="translate(145,225)" />
    <rect clip-path="url(#heart)" height="10" width="10" transform="translate(155,225)" />
    <rect clip-path="url(#heart)" height="10" width="10" transform="translate(165,225)" />
    <rect clip-path="url(#heart)" height="10" width="10" transform="translate(175,225)" />
    <rect clip-path="url(#heart)" height="10" width="10" transform="translate(195,225)" />
    <rect clip-path="url(#heart)" height="10" width="10" transform="translate(205,225)" />
    <rect clip-path="url(#heart)" height="10" width="10" transform="translate(225,225)" />
    <rect clip-path="url(#heart)" height="10" width="10" transform="translate(245,225)" />
    <rect clip-path="url(#heart)" height="10" width="10" transform="translate(255,225)" />
    <rect clip-path="url(#heart)" height="10" width="10" transform="translate(85,235)" />
    <rect clip-path="url(#heart)" height="10" width="10" transform="translate(105,235)" />
    <rect clip-path="url(#heart)" height="10" width="10" transform="translate(115,235)" />
    <rect clip-path="url(#heart)" height="10" width="10" transform="translate(145,235)" />
    <rect clip-path="url(#heart)" height="10" width="10" transform="translate(165,235)" />
    <rect clip-path="url(#heart)" height="10" width="10" transform="translate(175,235)" />
    <rect clip-path="url(#heart)" height="10" width="10" transform="translate(185,235)" />
    <rect clip-path="url(#heart)" height="10" width="10" transform="translate(195,235)" />
    <rect clip-path="url(#heart)" height="10" width="10" transform="translate(205,235)" />
    <rect clip-path="url(#heart)" height="10" width="10" transform="translate(245,235)" />
    <rect clip-path="url(#heart)" height="10" width="10" transform="translate(85,245)" />
    <rect clip-path="url(#heart)" height="10" width="10" transform="translate(95,245)" />
    <rect clip-path="url(#heart)" height="10" width="10" transform="translate(105,245)" />
    <rect clip-path="url(#heart)" height="10" width="10" transform="translate(135,245)" />
    <rect clip-path="url(#heart)" height="10" width="10" transform="translate(145,245)" />
    <rect clip-path="url(#heart)" height="10" width="10" transform="translate(155,245)" />
    <rect clip-path="url(#heart)" height="10" width="10" transform="translate(165,245)" />
    <rect clip-path="url(#heart)" height="10" width="10" transform="translate(195,245)" />
    <rect clip-path="url(#heart)" height="10" width="10" transform="translate(205,245)" />
    <rect clip-path="url(#heart)" height="10" width="10" transform="translate(215,245)" />
    <rect clip-path="url(#heart)" height="10" width="10" transform="translate(225,245)" />
    <rect clip-path="url(#heart)" height="10" width="10" transform="translate(235,245)" />
    <rect clip-path="url(#heart)" height="10" width="10" transform="translate(245,245)" />
    <rect clip-path="url(#heart)" height="10" width="10" transform="translate(255,245)" />
    <rect clip-path="url(#heart)" height="10" width="10" transform="translate(285,245)" />
    <rect clip-path="url(#heart)" height="10" width="10" transform="translate(85,255)" />
    <rect clip-path="url(#heart)" height="10" width="10" transform="translate(95,255)" />
    <rect clip-path="url(#heart)" height="10" width="10" transform="translate(115,255)" />
    <rect clip-path="url(#heart)" height="10" width="10" transform="translate(125,255)" />
    <rect clip-path="url(#heart)" height="10" width="10" transform="translate(155,255)" />
    <rect clip-path="url(#heart)" height="10" width="10" transform="translate(165,255)" />
    <rect clip-path="url(#heart)" height="10" width="10" transform="translate(175,255)" />
    <rect clip-path="url(#heart)" height="10" width="10" transform="translate(185,255)" />
    <rect clip-path="url(#heart)" height="10" width="10" transform="translate(195,255)" />
    <rect clip-path="url(#heart)" height="10" width="10" transform="translate(215,255)" />
    <rect clip-path="url(#heart)" height="10" width="10" transform="translate(285,255)" />
    <rect clip-path="url(#heart)" height="10" width="10" transform="translate(95,265)" />
    <rect clip-path="url(#heart)" height="10" width="10" transform="translate(125,265)" />
    <rect clip-path="url(#heart)" height="10" width="10" transform="translate(135,265)" />
    <rect clip-path="url(#heart)" height="10" width="10" transform="translate(145,265)" />
    <rect clip-path="url(#heart)" height="10" width="10" transform="translate(155,265)" />
    <rect clip-path="url(#heart)" height="10" width="10" transform="translate(165,265)" />
    <rect clip-path="url(#heart)" height="10" width="10" transform="translate(185,265)" />
    <rect clip-path="url(#heart)" height="10" width="10" transform="translate(205,265)" />
    <rect clip-path="url(#heart)" height="10" width="10" transform="translate(215,265)" />
    <rect clip-path="url(#heart)" height="10" width="10" transform="translate(235,265)" />
    <rect clip-path="url(#heart)" height="10" width="10" transform="translate(245,265)" />
    <rect clip-path="url(#heart)" height="10" width="10" transform="translate(265,265)" />
    <rect clip-path="url(#heart)" height="10" width="10" transform="translate(275,265)" />
    <rect clip-path="url(#heart)" height="10" width="10" transform="translate(285,265)" />
    <rect clip-path="url(#heart)" height="10" width="10" transform="translate(95,275)" />
    <rect clip-path="url(#heart)" height="10" width="10" transform="translate(105,275)" />
    <rect clip-path="url(#heart)" height="10" width="10" transform="translate(125,275)" />
    <rect clip-path="url(#heart)" height="10" width="10" transform="translate(135,275)" />
    <rect clip-path="url(#heart)" height="10" width="10" transform="translate(145,275)" />
    <rect clip-path="url(#heart)" height="10" width="10" transform="translate(155,275)" />
    <rect clip-path="url(#heart)" height="10" width="10" transform="translate(215,275)" />
    <rect clip-path="url(#heart)" height="10" width="10" transform="translate(225,275)" />
    <rect clip-path="url(#heart)" height="10" width="10" transform="translate(245,275)" />
    <rect clip-path="url(#heart)" height="10" width="10" transform="translate(255,275)" />
    <rect clip-path="url(#heart)" height="10" width="10" transform="translate(265,275)" />
    <rect clip-path="url(#heart)" height="10" width="10" transform="translate(285,275)" />
    <rect clip-path="url(#heart)" height="10" width="10" transform="translate(85,285)" />
    <rect clip-path="url(#heart)" height="10" width="10" transform="translate(95,285)" />
    <rect clip-path="url(#heart)" height="10" width="10" transform="translate(105,285)" />
    <rect clip-path="url(#heart)" height="10" width="10" transform="translate(125,285)" />
    <rect clip-path="url(#heart)" height="10" width="10" transform="translate(145,285)" />
    <rect clip-path="url(#heart)" height="10" width="10" transform="translate(205,285)" />
    <rect clip-path="url(#heart)" height="10" width="10" transform="translate(245,285)" />
    <rect clip-path="url(#heart)" height="10" width="10" transform="translate(255,285)" />
  </g>
</svg>